<?xml version="1.0" standalone="no"?>
<!DOCTYPE svg PUBLIC "-//W3C//DTD SVG 20010904//EN"
 "http://www.w3.org/TR/2001/REC-SVG-20010904/DTD/svg10.dtd">
<svg version="1.0" xmlns="http://www.w3.org/2000/svg" width="971.8" height="593.4" viewBox="379.2 531.6 971.8 593.4" preserveAspectRatio="xMidYMid meet">
<metadata>
Created by potrace 1.16, written by Peter Selinger 2001-2019
</metadata>
<g transform="translate(0.000000,3000.000000) scale(0.100000,-0.100000)" fill="#000000" stroke="none">
<path d="M6036 24584 c-27 -7 -58 -22 -70 -32 -12 -11 -36 -28 -55 -38 -63
-35 -72 -41 -92 -63 -11 -11 -27 -21 -37 -21 -26 0 -108 -101 -157 -192 -49
-93 -75 -190 -75 -278 0 -49 -3 -58 -15 -54 -26 11 -65 -5 -65 -26 0 -16 7
-18 43 -17 36 2 42 -1 40 -18 -1 -10 3 -27 8 -37 8 -14 5 -19 -16 -24 -19 -5
-24 -11 -20 -25 4 -13 -2 -22 -24 -34 -36 -18 -42 -58 -12 -77 19 -12 19 -12
0 -39 -10 -15 -19 -37 -19 -49 0 -12 -10 -36 -23 -53 -23 -33 -27 -40 -74
-117 -15 -25 -49 -75 -75 -111 -26 -36 -48 -71 -48 -77 0 -14 -61 -116 -72
-120 -4 -2 -8 -9 -8 -16 0 -7 -11 -22 -25 -34 -14 -12 -25 -27 -25 -32 0 -13
-12 -29 -65 -85 -61 -66 -85 -96 -85 -106 0 -5 -11 -14 -24 -20 -13 -6 -30
-22 -37 -35 -7 -13 -17 -24 -23 -24 -5 0 -24 -13 -41 -29 -16 -16 -42 -31 -57
-35 -25 -6 -28 -4 -28 18 0 34 -27 48 -61 30 -35 -18 -46 -59 -22 -88 33 -39
47 -46 94 -46 l46 0 6 -62 c3 -38 16 -87 33 -123 32 -69 27 -61 96 -142 29
-34 69 -80 88 -102 40 -47 80 -56 80 -18 0 13 -11 34 -25 47 -14 13 -25 27
-25 32 0 5 -22 31 -49 59 -53 54 -101 121 -101 142 0 7 -4 17 -9 23 -11 11
-31 95 -31 126 1 38 39 57 125 62 120 8 189 55 140 96 -14 12 -24 11 -65 -3
-60 -22 -110 -22 -110 -2 0 9 9 15 25 15 18 0 32 11 50 40 14 22 25 43 25 47
0 5 19 24 41 43 23 19 48 49 56 65 9 17 32 50 53 75 20 25 47 64 60 88 13 23
27 42 32 42 4 0 8 9 8 21 0 23 30 79 42 79 4 0 8 6 8 13 0 8 11 24 25 37 14
13 25 29 25 36 0 7 11 26 25 42 14 17 25 34 25 40 0 5 6 15 14 21 18 16 64
110 92 191 19 57 25 65 50 68 15 2 45 -6 66 -18 48 -27 171 -31 196 -7 13 14
12 19 -14 46 -16 17 -33 31 -39 31 -5 0 -23 11 -40 25 l-30 24 53 1 c28 0 52
5 52 10 0 6 32 10 77 10 42 0 100 7 130 15 29 8 79 22 111 31 108 29 154 53
224 117 62 57 116 151 119 207 3 40 -9 100 -22 116 -5 6 21 -4 58 -22 38 -18
100 -38 138 -44 117 -20 316 1 390 39 21 12 46 21 54 21 8 0 23 7 33 17 18 16
97 52 178 80 25 9 49 20 55 24 5 5 18 9 30 9 12 0 26 5 33 12 7 7 60 12 144
14 l133 2 -128 -8 c-125 -8 -157 -17 -210 -59 -98 -80 -146 -145 -182 -252
-14 -41 -29 -81 -33 -89 -12 -21 -5 -186 9 -238 11 -39 30 -61 109 -125 19
-16 186 -23 204 -8 7 6 30 14 52 19 34 7 39 12 39 36 1 16 9 34 20 42 25 18
29 18 40 -8 18 -39 45 -49 86 -30 45 21 102 69 111 93 6 16 24 18 180 21 130
2 175 0 181 -9 10 -15 43 -17 52 -3 3 6 17 10 30 10 13 0 34 4 47 9 54 21 133
41 162 41 17 0 58 9 89 20 81 29 344 79 371 71 5 -1 80 12 166 30 l156 31 31
-30 c17 -17 33 -38 36 -47 7 -18 48 -20 65 -3 16 16 15 48 -3 68 -13 15 -6 18
93 33 59 9 134 20 167 23 33 3 114 17 180 31 105 21 146 24 335 25 191 0 224
-3 295 -22 57 -15 126 -24 240 -29 202 -10 397 -53 578 -127 32 -13 65 -24 73
-24 8 0 32 -11 54 -25 22 -14 42 -25 45 -25 3 0 23 -11 45 -25 22 -14 47 -25
55 -25 8 0 33 -11 55 -25 22 -14 42 -25 45 -25 3 0 36 -22 75 -50 39 -27 72
-50 75 -50 16 0 135 -104 226 -196 110 -113 155 -154 169 -154 5 0 13 -7 18
-16 5 -9 51 -61 103 -116 52 -55 111 -125 132 -156 20 -30 46 -62 57 -69 11
-8 20 -19 20 -24 0 -5 11 -22 25 -37 14 -15 25 -38 25 -51 0 -13 11 -39 25
-57 14 -18 25 -37 25 -43 0 -6 23 -32 50 -59 28 -27 50 -54 50 -60 0 -16 74
-76 138 -111 31 -17 64 -35 72 -40 8 -5 32 -17 53 -27 20 -10 37 -22 37 -26 0
-5 8 -8 18 -8 18 0 106 -27 134 -41 10 -5 22 -9 28 -9 19 0 120 -80 120 -95 0
-24 -101 -105 -130 -105 -6 0 -26 -11 -44 -25 -18 -14 -38 -25 -45 -25 -6 0
-29 -11 -51 -25 -22 -14 -45 -25 -51 -25 -7 0 -26 -11 -43 -24 -17 -13 -62
-31 -100 -40 -75 -19 -116 -41 -116 -62 0 -25 31 -32 74 -18 23 7 67 21 99 30
31 9 57 20 57 23 0 4 17 15 38 25 20 10 51 25 67 34 17 9 39 20 50 25 11 6 27
14 35 19 8 5 35 18 60 30 25 11 65 37 90 56 25 20 47 37 48 38 9 6 22 88 17
105 -7 20 -116 109 -135 109 -6 0 -21 7 -33 15 -12 8 -50 21 -84 29 -34 8 -75
23 -90 33 -15 11 -42 25 -60 32 -18 7 -38 19 -44 27 -6 8 -17 14 -25 14 -25 0
-107 63 -137 107 -17 23 -34 43 -39 43 -4 0 -8 6 -8 14 0 8 -11 23 -25 34 -14
11 -25 26 -25 34 0 7 -9 19 -20 26 -12 7 -22 28 -26 51 -4 23 -17 49 -30 62
-13 12 -24 29 -24 36 0 8 -7 16 -15 19 -9 4 -32 32 -52 63 -41 61 -114 143
-238 264 -44 44 -139 138 -212 209 -73 72 -141 136 -152 142 -10 6 -58 38
-106 71 -97 66 -172 113 -195 121 -24 8 -121 57 -160 80 -19 11 -44 23 -55 27
-11 3 -65 22 -120 42 -87 32 -202 66 -325 95 -19 5 -102 13 -185 20 -82 6
-204 21 -270 33 -66 12 -163 23 -215 25 -141 6 -422 -16 -515 -40 -44 -11
-120 -24 -170 -28 -49 -5 -131 -14 -181 -20 l-91 -12 -50 36 c-28 20 -59 36
-70 36 -22 0 -114 -56 -126 -76 -4 -8 -16 -14 -25 -14 -9 -1 -28 -7 -42 -15
-17 -9 -29 -10 -37 -4 -8 7 -18 4 -31 -9 -13 -13 -39 -21 -86 -25 -74 -7 -216
-38 -314 -69 -87 -28 -172 -38 -172 -22 0 19 -29 44 -52 44 -11 0 -31 -9 -45
-20 -14 -11 -35 -20 -47 -20 -11 -1 -39 -8 -61 -17 -29 -11 -69 -15 -150 -13
-113 2 -129 5 -106 19 16 10 54 118 46 131 -3 5 0 18 7 30 10 16 10 24 0 40
-7 12 -11 24 -8 28 3 5 1 27 -5 50 -5 23 -11 58 -14 77 -2 18 -13 43 -23 53
-11 11 -26 36 -33 55 -7 20 -21 38 -31 40 -10 3 -18 12 -18 21 0 9 -24 27 -57
43 -54 26 -66 28 -169 26 -84 -1 -124 -7 -165 -22 -30 -12 -61 -21 -70 -21 -8
0 -33 -9 -55 -19 -21 -10 -58 -24 -80 -30 -23 -6 -47 -18 -54 -26 -7 -8 -20
-15 -30 -15 -9 0 -28 -9 -42 -19 -31 -24 -130 -61 -183 -68 -22 -3 -44 -9 -50
-14 -35 -33 -322 22 -353 68 -8 13 -21 23 -28 23 -8 0 -14 5 -14 10 0 20 -75
139 -87 140 -7 0 -13 4 -13 8 0 12 -57 38 -113 51 -62 15 -209 12 -271 -5z
m131 -60 c-3 -3 -12 -4 -19 -1 -8 3 -5 6 6 6 11 1 17 -2 13 -5z m108 -12 c-3
-3 -11 0 -18 7 -9 10 -8 11 6 5 10 -3 15 -9 12 -12z m145 -104 c0 -8 9 -23 20
-33 33 -30 23 -39 -11 -11 -17 15 -45 34 -62 43 -26 13 -28 17 -14 25 9 5 17
18 17 29 0 18 3 17 25 -9 14 -17 25 -36 25 -44z m-490 13 c0 -10 -24 -21 -43
-21 -7 0 -3 7 7 15 22 17 36 19 36 6z m230 -46 c9 -10 32 -15 76 -15 42 0 67
-5 78 -15 8 -8 24 -15 35 -15 12 0 21 -6 21 -13 0 -7 12 -24 28 -39 73 -71 75
-78 37 -153 -45 -90 -171 -195 -234 -195 -10 0 -53 -12 -96 -26 -65 -22 -91
-25 -164 -22 -63 2 -95 8 -115 21 -25 17 -26 20 -11 31 9 6 19 30 22 52 7 54
-11 68 -78 62 l-51 -5 7 36 c3 20 12 41 19 46 8 6 15 19 17 30 4 16 11 19 39
17 19 -2 37 -8 39 -13 1 -6 12 -18 22 -28 23 -21 157 -35 196 -20 13 5 35 9
48 9 15 0 29 9 36 22 10 19 8 25 -15 45 -15 13 -34 23 -42 23 -8 0 -14 4 -14
9 0 5 -9 11 -19 14 -14 3 -18 11 -14 26 4 15 -4 29 -26 50 -17 16 -31 31 -31
33 0 9 82 31 171 47 4 1 12 -6 19 -14z m-330 -8 c0 -2 -10 -12 -22 -23 l-23
-19 19 23 c18 21 26 27 26 19z m1918 -13 c26 -7 30 -24 5 -24 -22 -1 -77 -85
-69 -105 7 -20 51 -39 70 -32 26 10 19 37 -9 37 -26 0 -30 6 -16 28 6 11 13
11 37 0 16 -7 31 -15 34 -19 13 -17 47 -27 61 -18 7 5 16 9 19 9 6 0 3 -106
-6 -212 -6 -70 -24 -102 -46 -80 -21 21 -48 13 -86 -23 -20 -19 -44 -35 -53
-35 -9 0 -34 -14 -55 -31 -27 -21 -44 -28 -59 -24 -48 16 -66 17 -80 5 -21
-18 -19 -50 7 -77 l21 -23 -74 0 c-64 1 -79 4 -114 28 -53 37 -65 63 -65 149
0 82 15 127 39 117 9 -4 34 -10 56 -13 38 -6 39 -7 18 -19 -12 -7 -30 -12 -40
-12 -26 0 -53 -49 -42 -77 7 -20 16 -23 59 -23 38 0 50 4 50 15 0 11 -11 15
-40 15 -22 0 -40 4 -40 9 0 12 95 61 120 61 16 0 20 -7 20 -31 0 -17 -8 -44
-17 -60 -13 -22 -15 -31 -5 -41 15 -15 19 -11 47 59 21 50 28 58 52 60 101 9
164 22 189 42 14 11 35 21 45 21 27 0 53 44 45 76 l-7 25 -250 -3 c-245 -3
-250 -3 -247 17 2 11 13 24 26 30 13 6 22 19 22 31 0 13 15 34 38 53 20 17 47
40 58 51 15 14 44 23 99 30 43 5 81 12 83 15 7 7 72 6 100 -1z m-1940 -355 c1
-8 -6 -25 -17 -38 -19 -21 -21 -22 -45 -6 -30 20 -34 51 -8 58 32 9 67 2 70
-14z m-151 -71 c18 -20 11 -48 -12 -48 -22 0 -29 24 -19 68 5 26 9 31 12 17 2
-11 11 -28 19 -37z m96 -75 c9 -3 17 -9 17 -14 0 -5 11 -9 24 -9 14 0 28 -5
32 -11 5 -9 -7 -10 -47 -5 -55 7 -89 31 -89 63 0 13 3 13 23 -1 12 -9 30 -19
40 -23z m-43 -94 c19 -8 55 -27 80 -44 l45 -30 -58 -3 c-48 -3 -66 2 -103 23
-24 14 -44 30 -44 35 0 4 -3 16 -7 26 -5 14 -2 16 23 12 16 -3 45 -12 64 -19z"/>
<path d="M6130 24324 c-13 -34 -13 -38 8 -57 10 -9 33 -15 57 -14 32 2 41 6
43 23 8 59 -88 102 -108 48z m70 -35 c0 -5 -7 -9 -15 -9 -9 0 -15 9 -15 21 0
18 2 19 15 9 8 -7 15 -16 15 -21z"/>
<path d="M10293 24088 c-13 -6 -23 -14 -23 -18 0 -3 -9 -16 -21 -29 -19 -20
-27 -21 -76 -15 -31 4 -67 13 -81 20 -42 21 -81 -15 -54 -51 30 -42 198 -71
231 -41 15 14 16 11 13 -22 -3 -30 2 -42 22 -61 22 -21 31 -23 53 -15 14 5 31
17 37 27 9 15 7 22 -10 36 -12 10 -24 26 -26 37 -2 10 -13 20 -25 22 -25 4
-21 29 9 50 23 17 23 41 1 58 -21 16 -22 16 -50 2z"/>
<path d="M9631 24004 c-29 -13 -58 -24 -63 -24 -5 0 -30 -14 -54 -32 -40 -29
-45 -36 -42 -68 2 -27 8 -36 25 -38 14 -2 27 4 35 17 7 12 18 21 25 21 7 0 13
4 13 8 0 10 65 42 84 42 7 0 17 -14 22 -31 12 -43 44 -64 69 -45 27 20 22 122
-7 154 -27 27 -39 27 -107 -4z"/>
<path d="M10570 23948 c0 -26 10 -42 43 -74 76 -74 87 -78 152 -60 42 13 55
21 55 36 0 26 -35 43 -73 36 -27 -5 -36 0 -79 44 -60 62 -98 69 -98 18z"/>
<path d="M10968 23935 c-15 -8 -29 -23 -33 -32 -3 -10 -27 -32 -52 -48 -56
-37 -61 -47 -34 -74 27 -27 42 -26 73 2 14 12 46 39 72 60 48 39 57 67 32 93
-18 17 -24 17 -58 -1z"/>
<path d="M9993 23902 c-42 -44 -73 -83 -73 -92 0 -6 -5 -19 -12 -29 -9 -15 -9
-23 1 -35 25 -30 54 -19 86 34 20 33 39 52 55 56 43 9 55 20 55 50 0 27 -3 29
-47 32 -36 2 -51 -1 -65 -16z"/>
<path d="M8738 23903 c-10 -2 -18 -9 -18 -14 0 -5 -6 -9 -12 -9 -20 0 -88 -83
-88 -107 0 -13 9 -27 22 -34 19 -10 26 -6 67 40 45 50 73 63 87 39 4 -6 10
-39 13 -72 6 -60 7 -61 38 -64 28 -3 33 1 39 23 3 14 3 40 0 58 -3 17 -9 49
-12 70 -11 61 -64 89 -136 70z"/>
<path d="M7942 23808 c-7 -7 -12 -18 -12 -25 0 -21 28 -27 46 -9 13 13 14 19
4 31 -15 18 -22 19 -38 3z"/>
<path d="M7858 23743 c-29 -34 -8 -93 32 -93 11 0 20 -10 22 -24 5 -24 5 -24
-36 -10 -102 33 -199 54 -249 54 -46 0 -55 -3 -64 -22 -6 -15 -7 -31 -1 -44 8
-18 19 -20 91 -21 55 -1 102 -9 142 -23 33 -11 83 -27 110 -35 28 -8 78 -23
112 -34 34 -11 79 -23 100 -26 61 -10 147 -38 161 -52 7 -7 19 -13 26 -13 7 0
24 -13 38 -28 20 -23 37 -30 84 -36 45 -5 61 -3 73 8 22 23 0 63 -41 76 -31 9
-31 9 -3 4 17 -3 42 -8 58 -11 15 -3 33 -1 40 5 6 5 38 10 70 10 63 0 90 14
85 45 -5 34 -34 44 -70 24 -30 -17 -32 -17 -82 9 -28 14 -62 37 -77 50 -14 13
-33 24 -42 24 -23 0 -21 22 3 38 27 17 25 44 -6 73 -25 23 -32 24 -237 31
-145 5 -228 12 -262 22 -62 19 -59 20 -77 -1z m233 -113 c93 -13 279 -75 279
-92 0 -12 -34 -10 -71 6 -19 8 -70 19 -114 26 -47 7 -106 25 -142 43 -68 32
-80 43 -35 32 15 -4 52 -11 83 -15z m283 1 c3 -4 -6 -6 -19 -3 -14 2 -25 6
-25 8 0 8 39 4 44 -5z m33 -107 c-3 -3 -12 -4 -19 -1 -8 3 -5 6 6 6 11 1 17
-2 13 -5z"/>
<path d="M9290 23751 c-8 -6 -26 -7 -40 -4 -32 6 -54 -17 -48 -51 4 -19 -3
-33 -28 -57 -36 -35 -42 -57 -22 -77 20 -20 37 -14 87 33 52 48 61 53 61 30 0
-31 23 -65 46 -65 30 0 35 19 25 100 -12 93 -35 119 -81 91z"/>
<path d="M10902 23748 c-7 -7 -12 -24 -12 -39 0 -19 -6 -30 -20 -34 -29 -9
-80 -54 -80 -71 0 -7 -16 -29 -36 -47 -32 -29 -35 -36 -25 -55 17 -32 73 -30
95 3 9 14 21 25 26 25 5 0 21 11 36 25 24 22 29 23 43 11 48 -41 98 -19 85 38
-3 17 -13 40 -20 51 -8 11 -14 27 -14 36 0 21 -38 69 -54 69 -6 0 -17 -5 -24
-12z"/>
<path d="M11048 23734 c-9 -3 -20 -19 -23 -35 -11 -51 28 -77 65 -44 16 14 19
13 34 -10 28 -43 97 -24 82 22 -15 43 -46 66 -94 69 -26 1 -55 0 -64 -2z"/>
<path d="M9611 23690 c-39 -49 -54 -95 -40 -121 15 -30 44 -23 64 15 18 34 19
34 33 15 28 -41 91 -1 64 41 -6 11 -12 28 -12 39 0 38 -11 51 -44 51 -26 0
-39 -8 -65 -40z"/>
<path d="M10604 23695 c-14 -22 -14 -26 2 -55 20 -32 53 -40 73 -16 20 24 -21
96 -55 96 -2 0 -11 -11 -20 -25z"/>
<path d="M10118 23531 c-56 -28 -98 -79 -98 -118 0 -27 4 -33 22 -33 12 0 32
10 45 22 l24 22 6 -22 c3 -15 13 -22 29 -22 28 0 48 34 59 98 6 36 4 46 -12
57 -23 18 -30 18 -75 -4z"/>
<path d="M11460 23533 c-8 -3 -19 -12 -23 -20 -5 -8 -17 -11 -32 -7 -17 4 -26
0 -35 -15 -15 -28 -4 -61 20 -61 10 0 22 -4 25 -10 9 -15 45 -12 51 5 9 22 30
18 48 -10 20 -30 42 -32 56 -5 15 28 4 59 -31 92 -32 29 -56 39 -79 31z"/>
<path d="M6733 23433 c-7 -2 -13 -15 -13 -29 0 -31 63 -64 123 -64 46 0 67 13
67 41 0 24 -10 29 -88 45 -72 15 -71 15 -89 7z"/>
<path d="M10600 23320 c-24 -22 -51 -40 -60 -40 -30 0 -67 -66 -69 -122 -1
-25 2 -28 32 -28 39 0 57 15 57 47 0 13 10 29 25 39 22 15 26 15 40 0 19 -19
50 -7 59 21 17 58 17 91 1 106 -24 25 -36 21 -85 -23z"/>
<path d="M8623 23304 c-53 -28 -69 -54 -52 -86 11 -21 44 -24 56 -5 4 8 29 19
55 25 95 24 458 6 562 -27 34 -11 78 -22 98 -26 21 -3 51 -17 67 -30 16 -14
34 -25 40 -25 6 0 29 -11 51 -25 22 -14 53 -25 69 -25 17 0 56 -9 87 -21 31
-12 93 -29 137 -39 45 -11 105 -26 132 -34 155 -48 201 -55 425 -64 170 -7
236 -14 270 -27 39 -14 86 -16 365 -15 281 0 330 3 403 20 46 11 109 23 140
26 32 4 77 16 102 27 46 22 124 29 311 27 67 0 89 4 100 16 10 12 10 20 1 35
-7 10 -9 19 -5 19 73 -1 253 -25 275 -36 36 -19 77 -15 92 8 16 26 -4 52 -43
56 -18 2 -41 11 -52 20 -14 12 -39 17 -87 18 -37 0 -130 6 -207 12 -77 7 -235
14 -351 16 -199 4 -214 5 -242 26 l-29 22 -57 -27 c-59 -28 -86 -56 -86 -90 0
-49 51 -59 98 -20 26 22 32 23 61 12 22 -8 37 -8 49 -1 11 6 87 8 217 4 202
-6 226 -15 60 -23 -56 -3 -112 -13 -150 -26 -33 -12 -98 -26 -145 -32 -47 -6
-108 -18 -137 -25 -78 -21 -574 -20 -634 1 -27 10 -109 20 -209 25 -91 5 -199
12 -240 15 -119 10 -269 43 -295 66 -5 5 -21 9 -35 9 -15 0 -60 9 -101 20 -41
12 -108 30 -149 41 -77 21 -160 54 -170 67 -13 20 -113 62 -161 68 -30 4 -87
18 -128 31 -68 21 -91 23 -290 23 -215 0 -217 0 -268 -26z"/>
<path d="M11107 23254 c-30 -20 -38 -31 -35 -51 2 -14 13 -32 26 -41 21 -14
24 -12 57 24 37 40 43 62 23 82 -17 17 -29 15 -71 -14z"/>
<path d="M5707 23221 c-25 -23 -55 -41 -72 -43 -37 -4 -45 -36 -16 -62 20 -18
23 -18 64 -2 24 9 62 36 86 60 38 38 42 46 32 65 -17 31 -46 26 -94 -18z"/>
<path d="M8320 23185 c-21 -55 38 -93 62 -39 14 31 1 57 -31 62 -15 3 -24 -4
-31 -23z"/>
<path d="M6416 23112 c-16 -48 34 -77 80 -47 17 11 24 24 22 38 -3 19 -10 22
-50 25 -38 3 -47 0 -52 -16z"/>
<path d="M8815 23019 c-4 -5 -4 -21 -1 -35 5 -19 12 -25 29 -22 17 2 23 11 25
36 3 28 0 32 -22 32 -14 0 -28 -5 -31 -11z"/>
<path d="M9013 22998 c-22 -27 -24 -54 -4 -72 16 -14 23 -15 41 -6 30 16 25
84 -6 88 -11 2 -25 -3 -31 -10z"/>
<path d="M9514 22957 c-29 -25 -27 -60 2 -71 33 -13 70 28 59 64 -9 29 -33 31
-61 7z"/>
<path d="M9143 22962 c-15 -10 -30 -53 -26 -74 7 -27 34 -30 60 -7 28 27 30
65 4 79 -23 12 -23 12 -38 2z"/>
<path d="M8524 22928 c-6 -7 -20 -38 -33 -68 -13 -30 -27 -62 -31 -70 -12 -24
10 -60 36 -60 30 0 73 89 77 157 2 42 -1 48 -19 51 -11 2 -25 -3 -30 -10z"/>
<path d="M8677 22933 c-4 -3 -7 -16 -7 -29 0 -12 -13 -47 -29 -77 -33 -64 -32
-97 5 -97 30 0 64 47 88 122 16 47 17 60 6 73 -13 15 -51 20 -63 8z"/>
<path d="M7255 22881 c-68 -5 -80 -9 -83 -25 -4 -18 1 -19 89 -13 109 8 141
15 136 31 -4 13 -35 15 -142 7z"/>
<path d="M9466 22868 c-2 -7 -9 -28 -15 -45 -8 -26 -7 -36 6 -49 13 -13 14
-20 5 -35 -7 -10 -12 -28 -12 -40 0 -11 -11 -45 -25 -75 -30 -66 -31 -80 -6
-94 26 -13 44 -5 59 28 7 15 19 38 26 52 21 40 28 117 11 133 -9 10 -10 18 -4
24 6 6 11 32 12 59 2 47 1 49 -26 52 -16 2 -29 -2 -31 -10z"/>
<path d="M8920 22812 c0 -4 -10 -12 -22 -17 -14 -6 -24 -21 -26 -37 -3 -21 3
-30 26 -42 26 -13 31 -13 51 0 26 19 30 88 5 98 -21 8 -34 8 -34 -2z"/>
<path d="M7305 22779 c-99 -12 -138 -22 -143 -38 -4 -12 10 -13 79 -8 90 6
165 26 162 42 -3 13 -16 14 -98 4z"/>
<path d="M9212 22778 c-7 -7 -12 -20 -12 -30 0 -10 -6 -18 -14 -18 -12 0 -66
-60 -66 -75 0 -8 -43 -69 -52 -73 -11 -5 -10 -44 1 -60 14 -23 54 -9 76 26 54
88 61 96 93 104 32 8 32 9 32 67 0 44 -4 60 -16 65 -22 8 -28 8 -42 -6z"/>
<path d="M8386 22745 c-9 -9 -16 -20 -16 -25 0 -15 32 -41 48 -38 24 5 39 35
26 56 -15 23 -38 26 -58 7z"/>
<path d="M9580 22736 c-27 -33 18 -72 48 -42 13 13 14 20 6 34 -15 23 -38 26
-54 8z"/>
<path d="M9626 22680 c-54 -19 -68 -35 -59 -68 8 -32 73 -34 108 -3 11 10 28
21 38 24 31 11 17 68 -17 66 -11 -1 -43 -9 -70 -19z"/>
<path d="M7305 22669 c-16 -5 -64 -10 -105 -12 -58 -2 -75 -6 -75 -17 0 -12
17 -15 100 -13 124 3 145 8 145 33 0 22 -16 24 -65 9z"/>
<path d="M8677 22673 c-10 -19 -16 -63 -11 -77 4 -10 18 -16 35 -16 24 0 30 5
37 33 5 18 5 39 0 50 -9 17 -53 24 -61 10z"/>
<path d="M8296 22648 c-33 -47 -8 -90 43 -73 15 4 20 0 23 -17 4 -28 54 -39
64 -14 17 45 -23 85 -53 55 -9 -9 -11 -7 -7 9 8 27 -12 62 -36 62 -10 0 -26
-10 -34 -22z"/>
<path d="M5760 22645 c-8 -3 -78 -9 -155 -14 -138 -9 -560 -49 -601 -57 -27
-5 -78 -97 -69 -124 12 -39 71 -35 81 5 10 41 92 49 131 13 21 -19 24 -20 46
-5 19 12 60 17 168 20 79 3 161 8 183 12 25 5 64 2 110 -9 111 -25 234 -33
394 -23 171 9 343 2 410 -18 75 -23 258 -20 326 6 42 15 60 18 75 10 26 -15
49 -4 67 30 8 16 18 29 22 29 15 0 139 -43 187 -65 152 -69 223 -76 368 -34
64 19 68 22 65 47 -3 23 -8 28 -38 30 -28 3 -39 -2 -57 -25 -22 -27 -26 -28
-110 -28 -64 0 -97 5 -122 18 -19 9 -41 17 -51 17 -9 0 -20 4 -25 9 -14 13
-195 68 -268 82 -34 6 -105 20 -157 31 -55 12 -169 24 -270 29 -215 10 -689
20 -710 14z m571 -65 c55 0 67 -3 71 -17 4 -16 -4 -18 -76 -18 -45 -1 -169 -4
-276 -8 -107 -3 -186 -4 -175 -1 11 2 30 7 43 10 24 5 30 29 10 38 -7 4 66 4
162 1 96 -3 205 -5 241 -5z m-571 -7 c-25 -3 -49 -8 -54 -13 -10 -10 -36 -2
-36 11 0 5 30 8 68 7 52 -1 57 -2 22 -5z m1035 -41 c-3 -3 -11 0 -18 7 -9 10
-8 11 6 5 10 -3 15 -9 12 -12z m-177 -9 c-10 -2 -26 -2 -35 0 -10 3 -2 5 17 5
19 0 27 -2 18 -5z"/>
<path d="M8902 22568 c-13 -13 -15 -44 -6 -101 5 -28 12 -39 30 -43 41 -11 55
11 48 75 -4 31 -11 62 -17 69 -12 15 -39 16 -55 0z"/>
<path d="M8240 22520 c-13 -8 -31 -107 -32 -183 -1 -58 56 -73 67 -18 3 14 10
40 15 57 6 17 10 54 10 82 0 40 -4 53 -19 62 -23 12 -22 12 -41 0z"/>
<path d="M9602 22518 c-7 -7 -12 -38 -12 -74 0 -54 3 -65 23 -81 13 -10 30
-32 38 -48 18 -38 73 -47 105 -17 11 11 30 25 43 31 26 14 25 48 0 64 -12 8
-26 6 -48 -5 -61 -29 -101 0 -70 50 9 14 7 25 -8 52 -21 37 -50 49 -71 28z"/>
<path d="M8634 22512 c-5 -4 -23 -46 -39 -94 -28 -85 -28 -88 -10 -108 39 -43
64 -15 89 99 15 69 15 76 0 93 -19 20 -24 21 -40 10z"/>
<path d="M10298 22484 c-21 -7 -51 -20 -68 -29 -16 -9 -30 -11 -30 -6 0 16
-39 33 -60 26 -11 -4 -20 -13 -20 -22 0 -9 -6 -13 -14 -10 -8 3 -22 0 -31 -7
-25 -18 -13 -79 18 -93 24 -11 37 -8 141 31 38 14 64 20 58 14 -27 -27 -7 -78
29 -78 25 0 46 35 60 97 11 47 10 55 -6 73 -21 23 -25 23 -77 4z"/>
<path d="M5080 22435 c-9 -11 -11 -35 -7 -80 6 -63 25 -119 73 -221 13 -28 24
-55 24 -59 0 -15 53 -87 90 -123 19 -19 68 -62 109 -96 l74 -61 -37 -8 c-20
-5 -36 -13 -36 -17 0 -4 -22 -22 -50 -40 -27 -18 -50 -36 -50 -41 0 -5 -6 -9
-13 -9 -8 0 -24 -11 -37 -25 -13 -14 -29 -25 -37 -25 -7 0 -13 -3 -13 -8 0 -4
-15 -15 -32 -23 -92 -45 -144 -69 -150 -69 -4 0 -32 -11 -62 -25 -30 -14 -59
-25 -64 -25 -5 0 -31 -10 -58 -22 -33 -15 -69 -23 -111 -23 -49 0 -66 -4 -81
-20 -10 -11 -35 -31 -55 -45 -20 -14 -37 -28 -37 -32 0 -5 -6 -8 -14 -8 -8 0
-38 -19 -68 -43 -29 -24 -73 -53 -98 -66 -25 -13 -85 -44 -134 -69 -48 -26
-106 -56 -128 -68 -66 -35 -142 -92 -175 -132 -25 -30 -31 -90 -11 -110 24
-24 544 0 571 27 6 6 17 11 24 11 17 0 -16 -49 -33 -50 -6 0 -21 -11 -34 -25
-13 -14 -29 -25 -36 -25 -7 0 -14 -4 -16 -8 -3 -8 -55 -55 -131 -119 -15 -13
-33 -23 -41 -23 -8 0 -21 -11 -30 -25 -9 -14 -21 -25 -25 -25 -10 0 -71 -58
-71 -66 0 -3 -17 -26 -39 -52 -48 -59 -63 -86 -55 -106 13 -34 105 -32 173 3
20 10 68 31 106 46 111 43 188 78 216 100 143 110 183 145 236 210 74 90 90
99 53 30 -18 -33 -42 -73 -55 -90 -12 -16 -32 -50 -44 -75 -28 -59 -37 -73
-93 -152 -27 -37 -48 -71 -48 -75 0 -5 -21 -34 -47 -64 -27 -29 -59 -75 -73
-101 -22 -44 -23 -49 -8 -64 14 -15 20 -15 72 0 31 9 56 20 56 25 0 9 24 34
139 145 34 32 61 62 61 66 0 4 50 59 111 121 110 114 189 207 189 225 0 5 18
27 40 49 54 54 110 129 110 149 0 14 113 76 139 76 11 0 119 52 191 93 25 13
72 39 105 57 33 18 62 36 63 41 2 5 11 9 20 9 8 0 24 8 34 17 26 23 82 57 144
86 28 14 55 30 58 36 4 6 13 11 21 11 8 0 26 11 41 25 15 14 33 25 40 25 7 0
25 -11 40 -25 15 -14 31 -25 36 -25 5 0 24 -11 42 -25 18 -14 40 -25 49 -25 9
0 19 -4 22 -10 3 -5 23 -17 43 -26 20 -9 51 -23 67 -32 17 -8 38 -19 48 -24
79 -37 154 -80 197 -113 25 -19 56 -40 70 -46 13 -5 27 -14 30 -18 13 -21 90
-50 117 -45 17 3 51 -3 86 -16 51 -19 135 -43 247 -69 19 -5 53 -15 75 -23 22
-9 61 -18 86 -22 60 -9 316 9 409 29 39 8 91 15 115 15 49 0 69 25 38 48 -18
13 -41 12 -178 -10 -97 -16 -399 -16 -450 -1 -169 52 -209 63 -231 63 -14 0
-35 5 -47 12 -32 18 -89 38 -110 38 -10 0 -28 -7 -41 -15 -22 -15 -27 -14 -67
6 -24 13 -70 42 -102 66 -31 24 -60 43 -64 43 -3 0 -14 7 -24 16 -9 8 -52 34
-95 56 -44 22 -119 62 -169 87 -89 47 -167 94 -195 119 -8 7 -40 31 -70 53
-30 22 -62 46 -71 54 -9 7 -26 16 -38 20 -12 3 -21 10 -21 14 0 4 -22 20 -50
36 -27 16 -50 33 -50 37 0 4 -6 8 -14 8 -8 0 -21 6 -28 13 -7 7 -44 35 -82 61
-38 27 -77 57 -87 65 -27 25 -70 62 -134 116 -95 79 -168 157 -189 200 -75
162 -91 206 -101 280 -9 69 -14 85 -29 85 -8 0 -19 -7 -26 -15z m476 -733 c12
-9 28 -21 36 -27 9 -5 42 -28 74 -50 33 -22 66 -44 75 -50 8 -5 31 -20 50 -32
19 -13 39 -24 44 -26 12 -4 -75 -86 -91 -87 -6 0 -18 -7 -25 -17 -8 -9 -27
-22 -44 -30 -65 -30 -141 -74 -151 -88 -6 -8 -16 -15 -21 -15 -5 0 -18 -9 -27
-19 -9 -10 -25 -17 -34 -14 -9 2 -35 -4 -57 -14 -22 -9 -48 -18 -58 -19 -10
-1 -28 -11 -41 -23 -12 -11 -32 -21 -44 -21 -26 0 -113 -83 -130 -123 -7 -17
-26 -34 -47 -43 -20 -8 -38 -21 -42 -29 -9 -24 16 -45 53 -45 39 0 43 -11 14
-40 -11 -11 -20 -23 -20 -28 0 -4 -12 -19 -27 -33 -29 -27 -35 -34 -108 -136
-25 -35 -49 -63 -55 -63 -5 0 -10 -4 -10 -10 0 -5 -44 -55 -97 -110 -54 -54
-111 -116 -127 -137 -16 -21 -42 -48 -58 -61 -23 -20 -27 -21 -21 -5 8 22 66
107 87 129 9 8 16 20 16 26 0 6 11 26 25 44 14 18 25 37 25 43 0 6 20 41 43
78 24 37 59 97 78 132 19 36 42 73 51 83 10 9 21 30 24 45 4 16 18 42 31 59
12 17 23 41 23 53 0 12 7 32 15 45 14 21 13 24 -4 40 -15 14 -24 15 -40 6 -12
-6 -21 -17 -21 -25 0 -9 -9 -23 -21 -33 -11 -9 -27 -32 -36 -50 -8 -18 -67
-84 -129 -148 -63 -63 -114 -118 -114 -122 0 -14 -210 -182 -227 -182 -6 0
-32 -11 -59 -25 -27 -14 -53 -25 -57 -25 -5 0 -32 -11 -60 -23 -82 -37 -147
-60 -153 -54 -7 6 159 177 172 177 11 0 46 27 112 85 25 22 54 46 66 54 42 29
151 124 161 141 36 61 73 110 106 143 22 21 39 46 39 57 0 28 -37 36 -63 13
-12 -11 -29 -25 -37 -31 -8 -7 -29 -23 -46 -37 -18 -14 -37 -25 -43 -25 -6 0
-11 -3 -11 -7 0 -5 -15 -16 -32 -26 -33 -19 -176 -37 -425 -52 -101 -7 -113
-6 -113 9 0 19 107 101 165 126 22 9 46 25 54 34 7 9 19 16 26 16 13 0 164 76
180 91 5 5 17 9 27 9 10 0 18 3 18 8 0 4 23 23 50 42 27 19 50 38 50 43 0 4 6
7 14 7 8 0 21 6 28 13 7 6 29 24 48 38 28 21 39 24 53 15 15 -9 22 -7 37 12
10 12 24 22 31 22 13 0 75 22 219 77 185 71 264 109 316 152 50 41 75 60 137
103 31 22 57 46 57 55 0 11 11 6 38 -17 20 -17 47 -39 58 -48z m364 -240 c0
-4 12 -15 27 -24 l27 -16 -55 -35 c-30 -19 -76 -45 -101 -57 -26 -12 -52 -28
-59 -36 -6 -8 -15 -14 -19 -14 -4 0 -44 -24 -88 -52 -134 -87 -153 -98 -168
-98 -8 0 -14 -3 -14 -7 0 -9 -57 -43 -71 -43 -5 0 -27 -11 -49 -25 -22 -14
-46 -25 -54 -25 -7 0 -27 -7 -42 -15 -37 -19 -55 -19 -48 0 4 8 12 15 20 15 8
0 23 9 33 19 26 26 55 41 81 41 12 0 33 9 47 20 14 11 33 20 42 20 23 0 118
66 137 95 9 14 23 25 30 25 8 0 17 7 20 15 4 8 12 15 19 15 6 0 20 9 30 20 10
11 38 30 62 42 24 12 43 25 43 30 0 4 6 8 14 8 7 0 19 7 26 15 7 9 21 13 35 9
18 -4 25 1 39 30 15 32 36 48 36 28z"/>
<path d="M9316 22370 c-58 -54 -63 -90 -13 -90 27 0 41 9 71 41 40 45 41 55 9
76 -20 14 -25 11 -67 -27z"/>
<path d="M9177 22363 c-13 -12 -7 -50 9 -64 31 -26 70 25 44 56 -13 16 -42 20
-53 8z"/>
<path d="M11689 22363 c-9 -2 -22 -15 -29 -28 -18 -34 1 -55 49 -55 46 0 61
-14 61 -59 0 -35 0 -35 -16 -13 -19 27 -60 29 -74 3 -14 -28 -13 -35 15 -65
20 -21 33 -26 72 -26 26 0 55 5 63 10 19 12 20 100 2 155 -11 33 -21 44 -55
57 -57 23 -69 26 -88 21z"/>
<path d="M8758 22339 c-10 -5 -18 -16 -18 -24 0 -8 -7 -11 -20 -8 -61 16 -63
-67 -4 -201 40 -93 41 -105 12 -155 -12 -21 -19 -45 -15 -54 9 -23 62 -22 79
1 7 11 22 24 34 30 14 8 23 25 28 54 3 24 10 72 15 106 5 35 7 70 4 78 -9 24
-52 17 -65 -11 -21 -45 -31 -31 -44 59 -4 31 -3 47 3 43 17 -10 53 23 53 48 0
14 -8 29 -19 35 -23 12 -22 12 -43 -1z"/>
<path d="M9390 22290 c-25 -35 -23 -78 3 -94 24 -15 48 2 64 48 24 71 -25 105
-67 46z"/>
<path d="M8158 22283 c-21 -25 -40 -102 -36 -144 2 -29 7 -34 28 -34 21 0 28
9 47 55 28 70 30 116 4 130 -25 13 -25 13 -43 -7z"/>
<path d="M9568 22283 c-2 -36 4 -78 15 -91 14 -17 57 -11 71 10 16 27 -22 92
-57 96 -20 3 -27 -1 -29 -15z"/>
<path d="M10563 22246 c-24 -21 -26 -28 -16 -44 8 -14 8 -23 1 -30 -17 -17 16
-59 58 -77 39 -16 83 -19 99 -7 20 14 44 59 50 96 6 31 3 41 -16 62 -19 20
-32 24 -85 24 -52 0 -68 -4 -91 -24z m107 -72 c0 -11 -5 -14 -16 -10 -9 3 -20
6 -25 6 -5 0 -9 5 -9 10 0 6 11 10 25 10 16 0 25 -6 25 -16z"/>
<path d="M9111 22223 c-12 -16 -25 -33 -30 -39 -24 -30 -31 -54 -21 -74 15
-27 38 -25 67 6 43 46 63 94 50 115 -17 27 -42 24 -66 -8z"/>
<path d="M8460 22215 c-18 -22 -8 -50 19 -50 32 0 49 28 32 49 -17 20 -35 20
-51 1z"/>
<path d="M9931 22187 c-51 -14 -72 -38 -55 -64 12 -18 36 -20 88 -7 l29 7 -7
-49 c-8 -63 -23 -78 -67 -67 -19 5 -34 16 -35 24 -1 29 -17 49 -39 49 -32 0
-51 -55 -33 -94 17 -39 57 -56 130 -56 61 0 64 1 92 36 20 26 31 52 34 85 7
76 -4 117 -38 134 -34 17 -40 17 -99 2z"/>
<path d="M9556 22085 c-25 -38 -12 -61 44 -79 83 -27 115 -15 108 41 -3 25 -8
28 -43 31 -22 2 -44 10 -48 18 -13 22 -43 16 -61 -11z"/>
<path d="M11405 22100 c-133 -7 -264 -24 -340 -45 -27 -7 -70 -17 -95 -20 -25
-4 -63 -16 -85 -26 -22 -10 -71 -25 -110 -34 -112 -25 -168 -46 -193 -71 -13
-13 -30 -24 -39 -24 -20 0 -42 -28 -43 -55 -1 -25 -80 -84 -129 -97 -20 -6
-45 -18 -56 -27 -34 -28 -98 -59 -140 -67 -22 -4 -51 -14 -65 -23 -35 -24
-155 -81 -169 -81 -6 0 -35 -12 -63 -26 -128 -65 -221 -187 -176 -232 9 -9 8
-12 -8 -12 -11 0 -25 -5 -32 -12 -7 -7 -31 -17 -55 -24 -96 -26 -168 -43 -282
-69 -66 -15 -145 -33 -176 -41 -80 -20 -117 -17 -174 16 -27 16 -66 37 -85 46
-19 9 -49 23 -66 31 -23 10 -33 23 -36 44 -3 16 -1 29 4 29 16 0 8 50 -11 59
-24 13 -48 -5 -53 -39 -4 -32 -36 -30 -81 4 -18 13 -42 27 -54 31 -17 5 -23
14 -23 35 0 40 -37 50 -180 50 -95 0 -120 -3 -131 -16 -21 -25 1 -49 50 -52
35 -3 41 -6 41 -27 0 -30 27 -40 56 -20 27 17 60 20 69 5 3 -5 13 -10 22 -10
16 0 163 -68 173 -80 3 -4 19 -14 35 -24 17 -10 35 -28 42 -42 10 -21 9 -24
-7 -24 -26 0 -37 -40 -16 -55 24 -18 29 -61 18 -144 -6 -40 -8 -79 -5 -87 8
-22 54 -18 60 5 5 20 31 18 45 -3 14 -20 8 -123 -9 -176 -30 -93 -157 -176
-204 -134 -14 13 -22 13 -60 -2 -56 -22 -92 -53 -83 -74 14 -33 4 -75 -26
-102 -17 -16 -38 -28 -47 -28 -33 0 -113 -63 -226 -180 -84 -86 -124 -120
-140 -120 -15 0 -29 -9 -37 -24 -9 -18 -23 -26 -49 -28 -29 -2 -37 -8 -39 -26
-2 -13 4 -32 13 -42 14 -16 14 -18 0 -23 -8 -4 -15 -18 -15 -32 0 -14 -11 -42
-25 -63 -13 -20 -29 -59 -35 -87 -6 -27 -17 -56 -24 -65 -18 -20 -56 -125 -65
-178 -5 -23 -18 -53 -29 -65 -12 -13 -22 -29 -22 -35 0 -7 -11 -30 -25 -52
-14 -22 -25 -45 -25 -52 0 -7 -6 -30 -14 -53 -8 -22 -20 -59 -27 -82 -7 -24
-16 -43 -21 -43 -4 0 -8 -9 -8 -20 0 -11 -4 -28 -9 -38 -4 -9 -16 -34 -26 -54
-10 -21 -22 -38 -27 -38 -6 0 -17 -9 -26 -20 -10 -11 -31 -22 -49 -25 -29 -5
-32 -2 -43 29 -19 57 3 128 86 276 7 14 14 33 14 44 0 21 29 72 72 127 15 20
28 48 28 62 0 13 9 45 20 70 11 25 23 74 26 109 6 74 19 133 45 206 11 29 19
59 19 67 0 9 9 34 19 58 25 56 36 186 15 194 -30 11 -63 -8 -108 -64 -26 -32
-53 -66 -61 -75 -7 -9 -18 -26 -25 -37 -6 -12 -17 -21 -25 -21 -7 0 -16 -9
-20 -19 -3 -10 -16 -22 -28 -25 -12 -4 -35 -24 -52 -45 -16 -22 -51 -52 -77
-68 -26 -15 -48 -31 -48 -35 0 -5 -6 -8 -14 -8 -8 0 -21 -8 -28 -18 -7 -9 -24
-25 -38 -33 -14 -9 -38 -29 -54 -43 -15 -15 -45 -38 -65 -50 -20 -13 -42 -31
-50 -40 -7 -9 -22 -16 -32 -16 -11 0 -19 -4 -19 -8 0 -11 -121 -79 -156 -88
-16 -4 -40 -15 -54 -25 -14 -9 -35 -20 -47 -24 -14 -4 23 40 92 111 63 64 115
121 115 128 1 13 103 97 131 108 11 4 19 17 19 28 0 11 4 20 10 20 16 0 240
213 240 228 0 6 10 17 23 25 22 15 57 46 182 162 39 35 82 74 98 86 20 15 27
29 27 55 0 21 -6 37 -14 40 -48 18 1 82 115 149 35 20 66 40 69 44 3 3 16 12
30 19 14 7 52 28 85 47 33 19 77 42 98 51 20 9 37 20 37 24 0 5 9 12 21 15 26
9 46 24 123 97 l61 58 71 0 c72 0 94 10 94 42 0 19 -41 35 -59 23 -7 -4 -11 4
-11 20 0 14 -7 28 -15 31 -18 7 -72 -13 -83 -31 -5 -8 -35 -10 -104 -7 l-98 4
0 33 c0 43 -22 62 -55 47 -17 -8 -25 -20 -25 -37 0 -20 -5 -25 -25 -25 -14 0
-34 11 -47 25 -12 14 -28 25 -35 25 -7 0 -13 8 -13 18 0 11 -9 27 -20 37 -11
10 -22 27 -26 37 -3 11 -17 36 -30 55 -13 20 -24 50 -24 68 0 40 -24 64 -48
48 -11 -7 -16 -22 -14 -44 3 -41 30 -119 42 -119 5 0 13 -15 20 -34 6 -18 20
-42 30 -51 11 -10 20 -23 20 -29 0 -23 84 -84 135 -99 29 -8 62 -24 74 -36 27
-27 55 -27 82 0 15 15 27 19 50 14 l30 -7 -38 -37 c-41 -41 -136 -105 -194
-132 -20 -9 -40 -22 -43 -28 -4 -6 -14 -11 -22 -11 -9 0 -21 -6 -29 -12 -11
-12 -48 -36 -139 -92 -24 -14 -34 -16 -48 -7 -32 20 -52 11 -74 -32 -14 -29
-30 -45 -50 -52 -17 -5 -43 -19 -60 -30 -58 -39 -156 -60 -359 -75 -540 -41
-640 -54 -666 -86 -6 -8 -17 -14 -23 -14 -15 -1 -62 -42 -68 -60 -3 -9 2 -31
11 -50 l16 -35 184 -3 c142 -2 195 1 230 12 25 9 100 24 166 36 66 11 142 27
169 35 27 8 62 15 77 15 33 0 91 20 204 70 27 12 60 26 72 31 13 5 23 13 23
19 0 15 26 12 39 -4 9 -10 -6 -29 -71 -90 -45 -42 -83 -76 -85 -76 -3 0 -27
-21 -55 -47 -54 -52 -55 -53 -126 -128 -26 -28 -62 -61 -79 -74 -18 -12 -33
-29 -33 -37 0 -8 -7 -14 -15 -14 -8 0 -22 -11 -30 -24 -9 -13 -25 -26 -35 -29
-12 -3 -20 -14 -20 -26 0 -12 -6 -21 -15 -21 -8 0 -25 -11 -37 -25 -12 -14
-25 -25 -29 -25 -13 0 -69 -61 -69 -75 0 -8 -9 -17 -21 -20 -11 -4 -24 -18
-29 -31 -5 -13 -16 -24 -25 -24 -8 0 -15 -4 -15 -9 0 -6 -47 -57 -105 -115
-58 -58 -105 -109 -105 -115 0 -39 170 -27 227 15 17 13 39 24 48 24 20 0 112
48 148 77 16 13 34 23 41 23 7 0 23 11 36 25 13 14 27 25 32 25 5 0 19 9 31
21 12 12 47 40 77 63 30 22 59 47 63 53 4 7 13 13 18 13 14 0 57 33 127 96 32
28 67 57 80 63 12 6 22 18 22 25 0 8 9 16 20 19 11 3 23 13 26 22 4 9 16 27
28 39 12 12 31 35 43 51 21 28 22 29 22 8 1 -13 -3 -23 -9 -23 -5 0 -10 -9
-10 -19 0 -11 -4 -23 -10 -26 -5 -3 -10 -20 -10 -36 0 -16 -9 -47 -19 -67 -10
-21 -24 -73 -30 -117 -16 -120 -26 -168 -39 -192 -7 -12 -12 -34 -12 -48 0
-31 -11 -54 -60 -120 -21 -28 -41 -66 -45 -85 -4 -19 -29 -78 -56 -131 -27
-53 -49 -105 -49 -117 0 -11 -5 -22 -12 -24 -17 -6 -11 -78 7 -99 8 -8 15 -20
15 -26 0 -25 38 -43 90 -43 42 0 61 6 89 26 48 36 90 85 91 106 0 16 20 69 43
113 5 10 18 51 27 90 19 73 84 215 100 215 5 0 12 21 16 48 3 26 10 52 14 57
5 6 13 30 20 54 6 25 23 61 36 80 13 20 24 48 24 63 0 27 12 56 36 88 7 8 15
26 19 40 11 36 45 70 71 70 13 0 41 9 64 21 22 11 59 23 82 26 68 9 148 38
177 66 140 137 251 252 251 261 0 9 138 172 174 205 14 14 26 34 26 47 0 12 7
24 15 28 8 3 31 30 50 60 25 40 35 66 35 96 0 38 1 40 31 40 27 0 30 -3 23
-22 -10 -34 -85 -172 -95 -176 -5 -2 -9 -9 -9 -16 0 -14 -64 -86 -76 -86 -5 0
-18 -12 -31 -26 -17 -21 -20 -31 -12 -45 13 -24 31 -24 54 1 10 11 23 20 29
20 6 0 24 15 40 33 28 31 96 133 96 142 0 3 11 23 25 45 14 22 25 44 25 50 0
6 11 28 24 49 16 25 26 57 28 90 3 52 20 74 26 34 2 -12 10 -27 19 -34 13 -11
18 -10 34 10 26 32 26 81 0 81 -16 0 -21 10 -27 48 -4 26 -18 61 -31 78 l-24
32 38 4 c21 3 70 12 108 22 39 10 88 21 110 27 110 25 175 42 230 60 33 11 82
26 109 34 50 13 81 39 69 58 -4 7 1 8 13 3 10 -5 28 -11 39 -14 11 -2 27 -10
35 -17 18 -15 136 -71 203 -96 27 -10 76 -33 110 -52 35 -19 84 -36 112 -40
28 -3 79 -16 115 -27 55 -19 87 -22 205 -21 106 1 177 -5 295 -24 586 -96 731
-117 880 -123 l125 -5 -65 -18 c-36 -11 -83 -23 -105 -28 -41 -9 -183 -47
-290 -76 -33 -9 -114 -20 -180 -25 -66 -5 -151 -18 -190 -29 -62 -18 -102 -20
-360 -21 -159 -1 -328 -6 -375 -12 -47 -5 -209 -13 -360 -18 -151 -4 -294 -12
-317 -17 -45 -11 -96 -47 -110 -78 -11 -23 -1 -81 16 -98 15 -15 541 -10 611
4 25 6 158 14 295 18 243 8 443 30 620 67 138 30 162 33 279 44 65 7 126 14
135 17 14 4 14 3 1 -5 -8 -5 -73 -24 -145 -42 -71 -18 -162 -43 -202 -56 -39
-13 -94 -24 -121 -24 -51 0 -99 -12 -142 -35 -30 -16 -214 -59 -320 -75 -190
-28 -291 -61 -339 -108 -8 -7 -24 -20 -37 -29 -33 -21 -30 -44 9 -70 29 -20
46 -23 128 -23 52 0 132 6 179 14 116 19 243 28 235 16 -3 -5 -27 -12 -53 -16
-81 -11 -156 -33 -184 -54 -15 -11 -34 -20 -43 -20 -24 0 -40 -43 -26 -69 9
-16 18 -20 37 -15 13 3 30 2 37 -4 46 -37 239 -31 363 11 39 14 94 28 122 32
28 4 56 13 62 20 6 8 57 28 113 45 56 18 111 36 122 40 23 10 121 28 210 40
33 4 92 15 130 24 39 9 98 21 133 26 35 6 81 19 102 30 22 11 46 20 54 20 9 0
44 11 78 24 113 43 251 78 319 81 41 2 78 11 100 23 19 11 55 25 82 32 26 7
47 17 47 21 0 5 12 22 28 37 25 25 49 40 124 79 15 8 54 42 85 75 76 79 127
129 155 150 13 9 50 39 83 65 115 91 144 113 152 113 19 1 54 51 51 72 -2 18
-10 24 -35 26 -27 3 -33 -1 -38 -20 -4 -13 -22 -33 -41 -45 l-34 -22 16 30 c8
17 23 38 32 47 9 10 33 49 52 87 19 39 49 90 67 114 18 24 33 52 33 62 0 10 5
21 10 24 6 3 10 21 10 40 0 46 -49 85 -108 85 -28 0 -42 4 -42 13 0 7 -18 32
-40 56 -23 24 -38 46 -35 49 3 3 11 0 17 -6 7 -7 22 -12 35 -12 19 0 23 5 23
29 0 20 -6 32 -19 36 -11 3 -37 23 -58 43 -43 42 -131 92 -160 92 -11 0 -28 7
-39 15 -18 14 -18 14 4 15 34 0 62 18 62 39 0 21 -19 31 -56 31 -22 0 -165 69
-189 91 -5 5 -17 9 -26 9 -9 0 -36 9 -60 19 -24 11 -98 27 -164 36 -66 9 -142
22 -170 30 -76 21 -298 57 -405 66 -52 4 -126 13 -165 18 -74 11 -80 11 -270
1z m375 -75 c80 -7 159 -19 175 -24 17 -6 75 -15 130 -20 55 -5 117 -17 138
-26 21 -8 79 -20 130 -25 96 -9 176 -27 239 -53 37 -16 119 -91 139 -128 5
-11 16 -19 24 -19 8 0 15 -3 15 -7 0 -9 57 -43 71 -43 19 0 124 -53 148 -76
26 -24 26 -24 3 -24 -12 0 -22 -4 -22 -10 0 -5 -11 -10 -24 -10 -45 0 -43 -80
3 -95 16 -5 37 -34 29 -40 -2 0 -32 -12 -68 -26 -49 -19 -65 -30 -65 -44 0
-28 36 -31 107 -9 54 16 59 16 76 1 10 -10 34 -17 53 -17 26 0 37 -5 44 -22 6
-12 21 -25 35 -28 l25 -6 -25 -25 c-14 -14 -33 -44 -42 -67 -27 -68 -151 -251
-171 -252 -23 0 -40 -45 -27 -70 8 -14 4 -21 -18 -36 -15 -9 -31 -23 -35 -31
-4 -7 -13 -13 -18 -13 -6 0 -28 -19 -50 -42 -111 -119 -144 -149 -185 -170
-24 -12 -44 -25 -44 -30 0 -4 -6 -8 -14 -8 -8 0 -22 -7 -30 -16 -34 -34 -126
-81 -182 -93 -33 -7 -74 -16 -91 -21 -39 -10 -43 1 -8 20 14 7 25 19 25 26 0
7 23 28 50 48 28 20 50 40 50 45 0 16 -30 41 -49 41 -22 0 -91 -54 -108 -83
-15 -27 -16 -13 -4 31 12 39 -9 67 -43 58 -12 -3 -27 -6 -33 -6 -7 0 -13 -7
-13 -15 0 -9 -11 -20 -25 -25 -19 -7 -25 -17 -25 -38 0 -22 -10 -36 -45 -61
-44 -32 -63 -66 -51 -96 4 -12 -7 -21 -42 -36 -26 -11 -60 -23 -77 -26 -16 -3
-34 -9 -40 -13 -13 -10 -125 -37 -190 -45 -27 -4 -75 -13 -105 -21 -30 -8
-102 -20 -158 -28 -57 -8 -114 -22 -127 -30 -14 -9 -36 -16 -50 -16 -25 0
-150 -45 -172 -62 -6 -5 -49 -18 -95 -29 -46 -11 -108 -29 -138 -40 -44 -16
-75 -19 -154 -17 -62 2 -101 7 -103 14 -5 15 16 23 115 40 46 8 97 21 112 29
16 8 39 15 51 15 22 0 130 31 254 72 94 31 153 48 243 68 46 10 106 27 135 38
91 35 211 72 232 72 23 0 130 53 160 80 11 10 25 19 30 21 6 2 27 15 47 29 48
32 53 70 9 70 -35 0 -91 -19 -91 -31 0 -9 -142 -56 -214 -70 -27 -5 -62 -15
-77 -23 -35 -18 -187 -65 -259 -81 -54 -12 -92 -25 -217 -72 -34 -13 -72 -23
-85 -23 -13 0 -70 -10 -128 -21 -58 -12 -161 -25 -230 -30 -69 -4 -181 -12
-249 -18 -68 -6 -125 -10 -127 -8 -11 10 108 72 151 78 277 40 405 68 494 105
57 24 108 38 161 43 42 5 106 18 141 29 35 12 105 31 154 42 132 30 168 40
180 49 5 5 31 16 58 26 26 10 47 21 47 25 0 10 47 30 70 30 23 0 38 39 19 51
-15 10 -170 3 -264 -11 -33 -5 -116 -17 -185 -25 -69 -9 -150 -22 -180 -30
-30 -7 -91 -18 -135 -24 -44 -6 -127 -18 -186 -26 -58 -8 -220 -19 -360 -25
-139 -6 -278 -15 -308 -20 -52 -10 -521 -14 -521 -6 0 19 18 39 49 53 30 14
77 17 296 19 143 1 298 7 345 13 47 7 240 16 430 21 280 6 355 11 399 25 30 9
115 23 190 30 75 7 165 22 201 33 121 38 465 122 498 122 12 0 42 10 65 22 33
16 69 23 168 29 172 10 398 63 546 127 50 22 63 32 63 50 0 18 -5 22 -32 22
-18 0 -46 -7 -62 -15 -16 -9 -31 -14 -33 -11 -2 2 13 11 34 21 21 10 43 24 48
31 12 16 95 45 95 34 0 -13 38 -22 60 -15 13 4 20 15 20 30 0 13 5 27 10 30
19 11 10 45 -14 56 -19 9 -33 7 -75 -14 -40 -20 -51 -23 -51 -12 0 10 -10 15
-30 15 -22 0 -33 -6 -39 -22 -23 -58 -117 -118 -186 -118 -75 0 -98 -9 -93
-35 7 -34 -53 -63 -159 -75 -48 -5 -119 -19 -158 -30 -51 -14 -99 -20 -175
-20 -158 1 -488 35 -722 76 -76 13 -150 24 -165 24 -16 0 -84 11 -153 25 -69
13 -139 25 -155 25 -27 0 -31 3 -30 28 0 27 -1 27 -55 24 -30 -1 -65 -8 -77
-14 -17 -8 -50 -8 -127 1 -58 7 -109 10 -115 7 -14 -9 -150 12 -180 28 -70 38
-152 76 -162 76 -6 0 -28 9 -48 19 -20 11 -80 40 -133 66 -54 26 -98 51 -98
57 0 23 93 99 155 128 36 16 69 30 74 30 4 0 29 11 55 25 26 14 54 25 62 25 7
0 14 3 14 8 0 13 61 42 88 42 28 0 79 24 142 65 19 12 51 28 71 34 20 7 45 21
54 31 10 11 24 20 32 20 7 0 13 4 13 9 0 15 59 31 90 24 35 -7 63 12 55 37 -4
13 5 21 40 34 25 10 46 23 47 29 0 7 2 18 2 26 1 15 56 39 91 40 11 1 47 12
80 26 33 13 75 25 93 25 18 0 42 5 53 11 11 6 50 14 87 19 37 5 90 14 117 18
79 15 347 13 505 -3z m1422 -687 c-13 -13 -32 -2 -32 18 0 12 4 13 21 3 14 -7
18 -14 11 -21z m-4198 -314 c9 -8 16 -22 16 -30 0 -8 4 -14 10 -14 5 0 14 -9
20 -20 9 -17 7 -24 -12 -40 -13 -11 -33 -19 -45 -20 -12 0 -25 -4 -28 -10 -14
-23 -34 -9 -40 28 -3 20 -9 54 -14 74 -7 35 -6 37 18 41 51 8 60 7 75 -9z m6
-208 c0 -7 -12 -16 -27 -19 -34 -6 -40 -2 -23 18 16 19 50 20 50 1z m-331
-403 c-8 -10 -23 -28 -34 -40 -26 -27 -41 -46 -89 -108 -48 -62 -133 -145
-200 -194 -52 -38 -113 -61 -160 -61 l-26 0 39 43 c22 23 66 70 97 104 42 46
76 72 133 100 42 20 81 42 86 48 6 6 34 27 62 46 29 19 53 39 53 46 0 12 27
32 44 33 5 0 2 -8 -5 -17z m-1334 -99 c-22 -9 -71 -22 -110 -29 -96 -17 -174
-34 -211 -46 -17 -5 -48 -9 -70 -9 -21 -1 -64 -9 -94 -20 -45 -16 -83 -19
-207 -20 -155 0 -175 5 -130 35 60 39 133 53 312 60 108 5 206 15 253 25 48
11 119 18 187 19 110 0 110 0 70 -15z"/>
<path d="M11373 21936 c-18 -29 -81 -49 -136 -41 -104 15 -129 11 -205 -28
-41 -20 -80 -37 -88 -37 -8 0 -32 -11 -54 -25 -22 -14 -43 -25 -48 -25 -5 0
-20 -13 -35 -28 -37 -39 -36 -84 2 -123 35 -34 48 -35 121 -10 32 10 117 23
200 30 140 12 200 25 260 56 29 15 31 22 46 163 6 57 -5 82 -37 82 -10 0 -22
-6 -26 -14z m-41 -117 c-4 -4 -36 -17 -72 -29 -36 -13 -82 -29 -104 -37 -34
-12 -41 -12 -65 4 -14 10 -32 20 -39 23 -8 4 1 14 25 27 33 17 54 20 150 19
61 0 109 -4 105 -7z m-362 -87 c0 -13 -15 -24 -50 -36 -78 -28 -83 0 -6 34 52
24 56 24 56 2z"/>
<path d="M12490 21688 c-30 -15 -80 -37 -109 -49 -30 -11 -61 -29 -69 -40 -7
-10 -18 -19 -23 -19 -13 0 -59 -53 -81 -94 -9 -17 -17 -47 -18 -66 0 -20 -5
-41 -11 -47 -6 -6 -14 -40 -18 -74 -9 -73 1 -99 37 -99 21 0 110 43 122 59 3
4 38 29 78 56 39 26 72 52 72 57 0 4 6 8 14 8 7 0 33 26 57 58 24 31 60 74 81
95 27 27 38 46 38 67 0 17 -5 30 -10 30 -6 0 -16 12 -22 26 -7 14 -28 34 -47
43 -36 18 -36 18 -91 -11z m78 -86 c2 -12 -1 -22 -7 -22 -6 0 -32 -29 -58 -65
-63 -84 -77 -89 -52 -18 10 31 19 64 19 75 0 20 57 60 80 56 8 -2 16 -13 18
-26z"/>
<path d="M9116 22085 c-28 -21 -12 -55 25 -55 24 0 29 4 29 25 0 32 -29 48
-54 30z"/>
<path d="M8033 22062 c-6 -4 -13 -23 -15 -41 -2 -29 -8 -36 -32 -42 -48 -13
-63 -59 -26 -79 15 -8 28 -6 57 10 21 11 43 20 49 20 16 0 24 24 24 74 0 55
-24 79 -57 58z"/>
<path d="M9212 22050 c-50 -21 -34 -70 23 -70 43 0 71 30 55 59 -11 22 -39 26
-78 11z"/>
<path d="M9436 22024 c-9 -9 -16 -32 -16 -54 0 -31 5 -43 25 -56 24 -16 27
-16 45 1 28 25 28 100 1 115 -27 14 -37 13 -55 -6z"/>
<path d="M6327 22023 c-15 -14 -6 -70 17 -103 18 -27 39 -41 87 -58 72 -25 97
-27 133 -11 30 14 39 34 26 58 -7 15 -22 19 -73 19 -79 0 -100 11 -121 62 -12
31 -21 40 -39 40 -13 0 -27 -3 -30 -7z"/>
<path d="M8556 21996 c-23 -42 -10 -66 34 -66 21 0 30 7 40 29 18 44 10 66
-25 69 -25 2 -33 -3 -49 -32z"/>
<path d="M7128 21957 c-7 -8 -23 -19 -36 -26 -16 -8 -22 -21 -22 -45 0 -43 25
-55 55 -26 29 27 53 25 67 -5 6 -14 15 -25 20 -25 4 0 8 -6 8 -12 0 -7 19 -29
43 -50 36 -32 39 -37 20 -38 -12 0 -25 5 -28 10 -9 15 -41 12 -54 -4 -15 -18
0 -50 31 -67 24 -13 93 -14 111 -2 7 5 19 8 27 9 8 1 23 2 33 3 11 0 17 9 17
26 0 25 -39 70 -105 121 -20 15 -42 41 -49 59 -31 73 -101 109 -138 72z"/>
<path d="M9066 21914 c-3 -9 -6 -26 -6 -39 0 -13 -10 -31 -22 -40 -22 -15 -23
-14 -26 5 -4 24 -34 42 -56 34 -18 -7 -39 -74 -30 -98 9 -25 43 -30 65 -10 17
16 22 16 29 4 6 -8 10 -18 10 -22 0 -4 11 -10 25 -14 40 -10 80 27 101 93 l18
56 -30 23 c-34 28 -69 31 -78 8z"/>
<path d="M8220 21854 c-6 -14 -20 -35 -33 -45 -32 -27 -144 -79 -172 -79 -13
0 -26 -6 -28 -12 -3 -7 -3 1 0 18 3 20 0 34 -11 43 -27 23 -50 9 -66 -41 -8
-26 -18 -49 -21 -53 -13 -13 4 -45 27 -51 37 -9 54 2 55 38 2 30 2 31 6 5 2
-15 13 -32 24 -38 17 -9 28 -6 58 15 20 14 46 26 57 26 52 0 201 142 189 180
-5 15 -15 20 -41 20 -28 0 -36 -5 -44 -26z"/>
<path d="M6607 21835 c-19 -14 -16 -55 4 -55 5 0 9 -6 9 -13 0 -31 85 -118
131 -136 71 -26 95 31 32 74 -21 14 -43 25 -49 25 -7 0 -14 10 -18 23 -6 24
-68 97 -82 97 -5 0 -17 -7 -27 -15z"/>
<path d="M7683 21807 c-10 -13 -26 -26 -35 -30 -21 -7 -24 -40 -5 -55 6 -5 22
-13 35 -17 48 -14 92 67 56 106 -22 24 -29 24 -51 -4z"/>
<path d="M8734 21806 c-8 -34 -2 -57 19 -70 35 -22 66 18 53 70 -5 19 -13 24
-36 24 -23 0 -31 -5 -36 -24z"/>
<path d="M8596 21801 c-23 -25 -6 -64 26 -59 29 4 46 33 32 56 -16 24 -37 26
-58 3z"/>
<path d="M9425 21778 c-22 -5 -50 -11 -62 -14 -23 -4 -59 -61 -63 -99 -9 -82
11 -99 109 -90 42 4 87 12 101 19 24 12 25 11 25 -23 0 -33 3 -36 32 -39 27
-3 35 1 45 22 6 14 15 26 20 26 4 0 8 6 8 13 0 8 14 42 30 76 29 59 30 65 15
81 -9 10 -30 18 -48 18 -18 0 -61 5 -97 11 -36 6 -67 10 -70 10 -3 -1 -23 -5
-45 -11z m-32 -129 c-23 -8 -27 -4 -19 17 5 14 9 14 22 3 14 -12 14 -14 -3
-20z"/>
<path d="M7621 21676 c-20 -24 -19 -97 2 -110 15 -9 22 -7 38 13 10 13 19 38
19 55 0 49 -34 73 -59 42z"/>
<path d="M8663 21648 c-11 -25 0 -68 17 -68 5 0 10 -18 10 -39 0 -41 20 -71
46 -71 8 0 14 -9 14 -20 0 -22 24 -30 85 -27 32 2 41 6 43 23 5 32 -21 51 -67
50 l-41 -1 0 52 c0 63 -7 83 -30 83 -10 0 -20 9 -23 20 -7 27 -41 25 -54 -2z"/>
<path d="M8163 21635 c-7 -8 -13 -19 -13 -24 0 -5 -22 -32 -49 -58 -27 -27
-53 -61 -56 -76 -4 -15 -11 -30 -16 -33 -5 -3 -9 -17 -9 -32 0 -15 -11 -45
-25 -67 -13 -22 -25 -52 -25 -66 0 -15 -7 -32 -15 -39 -9 -7 -15 -23 -13 -34
2 -16 11 -22 39 -24 43 -4 58 11 66 65 3 21 21 69 39 107 19 39 34 80 34 93 0
13 6 26 14 29 30 11 86 96 86 130 0 42 -32 58 -57 29z"/>
<path d="M8832 21638 c-29 -37 -23 -88 10 -88 22 0 57 37 58 61 0 33 -47 52
-68 27z"/>
<path d="M8919 21591 c-20 -16 -22 -23 -13 -38 13 -22 60 -29 80 -12 8 7 14
24 12 38 -4 34 -45 40 -79 12z"/>
<path d="M9460 21555 c-10 -12 -10 -21 -2 -40 20 -43 66 -26 60 21 -4 34 -37
45 -58 19z"/>
<path d="M7512 21528 c-15 -15 -14 -42 2 -87 16 -44 48 -57 72 -30 17 19 17
22 2 52 -9 18 -18 41 -20 52 -4 23 -38 31 -56 13z"/>
<path d="M7366 21504 c-10 -26 -7 -54 10 -91 15 -29 21 -34 48 -31 40 4 43 24
14 88 -17 37 -28 50 -44 50 -12 0 -25 -7 -28 -16z"/>
<path d="M9477 21443 c-16 -15 -7 -62 13 -68 42 -13 78 33 48 63 -13 13 -50
16 -61 5z"/>
<path d="M8819 21386 c-17 -36 -4 -78 23 -74 31 4 44 31 32 65 -13 37 -41 42
-55 9z"/>
<path d="M9305 21357 c-23 -36 -5 -80 31 -75 33 4 47 36 30 69 -16 33 -42 35
-61 6z"/>
<path d="M8927 21343 c-14 -14 -7 -74 9 -80 37 -14 70 41 44 73 -13 15 -42 19
-53 7z"/>
<path d="M6927 21313 c-4 -3 -7 -40 -7 -80 0 -67 2 -76 26 -98 30 -28 44 -31
62 -13 15 15 16 55 2 60 -6 2 -13 28 -17 58 -3 30 -10 61 -16 68 -10 13 -39
16 -50 5z"/>
<path d="M9065 21301 c-3 -11 -3 -31 1 -45 5 -20 12 -26 34 -26 35 0 46 26 29
64 -15 31 -55 36 -64 7z"/>
<path d="M9201 21291 c-34 -34 -21 -71 25 -71 46 0 58 50 17 77 -19 13 -24 12
-42 -6z"/>
<path d="M8289 21164 c-14 -17 -5 -40 24 -58 34 -22 73 28 47 59 -16 20 -54
19 -71 -1z"/>
</g>
</svg>
